<?xml version="1.0" encoding="utf-8"?>
<!DOCTYPE svg PUBLIC "-//W3C//DTD SVG 1.1//EN" "http://www.w3.org/Graphics/SVG/1.1/DTD/svg11.dtd">
<svg version="1.1" xmlns="http://www.w3.org/2000/svg" xmlns:xlink="http://www.w3.org/1999/xlink" x="0px" y="0px"
	 width="280px" height="130px" viewBox="0 0 280 130" enable-background="new 0 0 280 130" xml:space="preserve">
<g>
	<path fill="#323A46" d="M123.452,75.32h-7.308v-1.121h15.82v1.121h-7.308v18.479h-1.204V75.32z"/>
	<path fill="#323A46" d="M134.652,74.199h1.176v8.064c0,0.645-0.112,1.148-0.112,1.148h0.056c0.476-1.316,2.436-3.948,5.937-3.948
		c3.64,0,4.619,2.155,4.619,5.46v8.876h-1.176v-8.456c0-2.436-0.309-4.732-3.443-4.732c-2.632,0-4.957,1.849-5.657,4.453
		c-0.168,0.588-0.224,1.231-0.224,1.903v6.832h-1.176V74.199z"/>
	<path fill="#323A46" d="M156.884,79.463c3.809,0,5.712,2.996,5.712,6.384c0,0.309-0.056,0.756-0.056,0.756h-11.228
		c0,4.061,2.744,6.385,5.991,6.385c2.688,0,4.341-1.765,4.341-1.765l0.644,0.979c0,0-1.96,1.933-4.984,1.933
		c-3.947,0-7.224-2.856-7.224-7.308C150.08,82.095,153.3,79.463,156.884,79.463z M161.364,85.511
		c-0.14-3.416-2.185-4.956-4.508-4.956c-2.576,0-4.956,1.681-5.46,4.956H161.364z"/>
</g>
<g>
	<path fill="#323A46" d="M3.882,108.189h6.808c4.427,0,6.892,2.409,6.892,5.603c0,1.569-0.812,3.334-2.494,4.091
		c2.017,0.616,3.39,2.381,3.39,4.454c0,3.558-2.241,5.463-7.424,5.463H3.882V108.189z M10.55,111.551H7.916v4.959h2.634
		c2.185,0,2.998-0.925,2.998-2.493C13.547,112.447,12.735,111.551,10.55,111.551z M7.916,119.871v4.566h3.474
		c2.129,0,2.914-0.84,2.914-2.269s-0.785-2.298-2.914-2.298H7.916z"/>
	<path fill="#323A46" d="M27.29,108.189h4.034v16.192h7.873v3.418H27.29V108.189z"/>
	<path fill="#323A46" d="M57.115,107.854c5.883,0,10.506,4.201,10.506,10.141s-4.623,10.142-10.506,10.142
		s-10.505-4.202-10.505-10.142S51.231,107.854,57.115,107.854z M57.115,124.662c3.558,0,6.416-2.717,6.416-6.668
		c0-3.949-2.857-6.667-6.416-6.667c-3.558,0-6.416,2.718-6.416,6.667C50.699,121.945,53.557,124.662,57.115,124.662z"/>
	<path fill="#323A46" d="M85.674,107.854c5.883,0,10.506,4.201,10.506,10.141s-4.623,10.142-10.506,10.142
		s-10.505-4.202-10.505-10.142S79.791,107.854,85.674,107.854z M85.674,124.662c3.558,0,6.416-2.717,6.416-6.668
		c0-3.949-2.857-6.667-6.416-6.667c-3.558,0-6.416,2.718-6.416,6.667C79.259,121.945,82.117,124.662,85.674,124.662z"/>
	<path fill="#323A46" d="M117.231,123.653h-2.017l-6.051-8.097V127.8h-4.034v-19.61h3.026l8.068,10.813l8.068-10.813h3.025v19.61
		h-4.034v-12.243L117.231,123.653z"/>
	<path fill="#323A46" d="M141.839,108.189v19.61h-4.034v-19.61H141.839z"/>
	<path fill="#323A46" d="M152.336,108.189h2.97l9.329,12.299v-12.299h4.034v19.61h-2.97l-9.329-12.327V127.8h-4.034V108.189z"/>
	<path fill="#323A46" d="M188.125,107.854c4.734,0,8.824,2.773,10.085,7.115h-4.314c-1.064-2.27-3.306-3.642-5.771-3.642
		c-3.475,0-6.416,2.661-6.416,6.667s2.689,6.668,6.416,6.668c2.661,0,4.622-1.261,5.603-3.39h-5.799v-3.278h10.701
		c-0.056,6.023-4.202,10.142-10.505,10.142c-6.023,0-10.506-4.118-10.506-10.142S182.325,107.854,188.125,107.854z"/>
	<path fill="#323A46" d="M217.379,108.189h4.034v16.192h7.872v3.418h-11.906V108.189z"/>
	<path fill="#323A46" d="M249.641,124.887h-8.46l-1.121,2.913h-4.202l7.929-19.61h3.249l7.929,19.61h-4.202L249.641,124.887z
		 M242.469,121.524h5.884l-2.941-7.62L242.469,121.524z"/>
	<path fill="#323A46" d="M263.075,108.189h6.808c4.427,0,6.892,2.409,6.892,5.603c0,1.569-0.812,3.334-2.493,4.091
		c2.018,0.616,3.39,2.381,3.39,4.454c0,3.558-2.241,5.463-7.424,5.463h-7.172V108.189z M269.743,111.551h-2.634v4.959h2.634
		c2.185,0,2.997-0.925,2.997-2.493C272.74,112.447,271.928,111.551,269.743,111.551z M267.109,119.871v4.566h3.474
		c2.13,0,2.914-0.84,2.914-2.269s-0.784-2.298-2.914-2.298H267.109z"/>
</g>
<path fill="#514DFF" d="M120,1c13.809,0,25,11.191,25,25v10c0-11.047,8.953-20,20-20s20,8.953,20,20v23h-33.615H95V26
	C95,12.191,106.191,1,120,1z"/>
</svg>
