<?xml version="1.0" encoding="utf-8"?>
<!DOCTYPE svg PUBLIC "-//W3C//DTD SVG 1.1//EN" "http://www.w3.org/Graphics/SVG/1.1/DTD/svg11.dtd">
<svg version="1.1" xmlns="http://www.w3.org/2000/svg" xmlns:xlink="http://www.w3.org/1999/xlink" x="0px" y="0px"
	 width="200px" height="18px" viewBox="0 0 200 18" enable-background="new 0 0 200 18" xml:space="preserve">
<g>
	<g>
		<path fill="#323A46" d="M41.799,8.502h-3.13V8.023h6.776v0.479h-3.13v7.916h-0.516V8.502z"/>
		<path fill="#323A46" d="M47.8,8.023h0.504v3.454c0,0.277-0.048,0.492-0.048,0.492h0.024c0.204-0.564,1.043-1.691,2.542-1.691
			c1.559,0,1.979,0.924,1.979,2.34v3.801h-0.504v-3.621c0-1.043-0.132-2.027-1.475-2.027c-1.127,0-2.123,0.791-2.422,1.906
			c-0.072,0.252-0.096,0.529-0.096,0.816v2.926H47.8V8.023z"/>
		<path fill="#323A46" d="M58.527,10.277c1.631,0,2.447,1.283,2.447,2.734c0,0.133-0.024,0.324-0.024,0.324h-4.809
			c0,1.74,1.175,2.734,2.566,2.734c1.151,0,1.859-0.756,1.859-0.756l0.276,0.42c0,0-0.839,0.828-2.135,0.828
			c-1.691,0-3.094-1.224-3.094-3.131C55.613,11.404,56.992,10.277,58.527,10.277z M60.446,12.869
			c-0.06-1.465-0.935-2.124-1.931-2.124c-1.104,0-2.123,0.719-2.339,2.124H60.446z"/>
		<path fill="#323A46" d="M69.232,8.023h2.915c1.895,0,2.95,1.031,2.95,2.398c0,0.672-0.348,1.429-1.067,1.75
			c0.864,0.267,1.451,1.021,1.451,1.908c0,1.522-0.959,2.338-3.178,2.338h-3.07L69.232,8.023L69.232,8.023z M72.086,9.462h-1.127
			v2.124h1.127c0.936,0,1.283-0.396,1.283-1.068C73.37,9.846,73.022,9.462,72.086,9.462z M70.959,13.023v1.955h1.487
			c0.912,0,1.247-0.359,1.247-0.972s-0.335-0.983-1.247-0.983H70.959z"/>
		<path fill="#323A46" d="M80.464,8.023h1.727v6.932h3.37v1.463h-5.097V8.023z"/>
		<path fill="#323A46" d="M94.441,7.879c2.519,0,4.498,1.799,4.498,4.342s-1.979,4.342-4.498,4.342s-4.498-1.799-4.498-4.342
			C89.944,9.678,91.923,7.879,94.441,7.879z M94.441,15.076c1.523,0,2.747-1.164,2.747-2.855s-1.224-2.854-2.747-2.854
			s-2.747,1.162-2.747,2.854C91.695,13.912,92.918,15.076,94.441,15.076z"/>
		<path fill="#323A46" d="M107.881,7.879c2.52,0,4.498,1.799,4.498,4.342s-1.979,4.342-4.498,4.342
			c-2.518,0-4.497-1.799-4.497-4.342S105.363,7.879,107.881,7.879z M107.881,15.076c1.523,0,2.747-1.164,2.747-2.855
			s-1.224-2.854-2.747-2.854s-2.746,1.162-2.746,2.854S106.357,15.076,107.881,15.076z"/>
		<path fill="#323A46" d="M121.501,14.283l-2.183-3.262l-0.359,5.396h-1.775l0.672-8.395h1.271l2.807,4.208l2.807-4.208h1.271
			l0.67,8.395h-1.773l-0.36-5.396l-2.182,3.262H121.501z"/>
		<path fill="#323A46" d="M133.875,8.023v8.395h-1.729V8.023H133.875z"/>
		<path fill="#323A46" d="M139.575,8.023h1.271l3.993,5.266V8.023h1.728v8.395h-1.271l-3.993-5.277v5.277h-1.728V8.023z"/>
		<path fill="#323A46" d="M158.16,9.811c-0.66-0.325-1.283-0.443-2.027-0.443c-1.57,0-2.771,1.091-2.771,2.854
			c0,1.799,1.355,2.867,2.963,2.867c0.359,0,0.756-0.037,1.031-0.133v-1.414h-1.703v-1.465h3.431v3.947
			c-0.862,0.395-1.812,0.539-2.817,0.539c-2.699,0-4.654-1.765-4.654-4.342c0-2.484,1.859-4.342,4.559-4.342
			c0.947,0,1.799,0.18,2.52,0.563L158.16,9.811z"/>
		<path fill="#323A46" d="M169.826,8.023h1.729v6.932h3.369v1.463h-5.098V8.023L169.826,8.023z"/>
		<path fill="#323A46" d="M184.848,15.172h-3.621l-0.479,1.246h-1.799l3.395-8.395h1.392l3.395,8.395h-1.799L184.848,15.172z
			 M181.777,13.732h2.52l-1.26-3.262L181.777,13.732z"/>
		<path fill="#323A46" d="M191.811,8.023h2.914c1.896,0,2.951,1.031,2.951,2.398c0,0.672-0.348,1.429-1.068,1.75
			c0.865,0.267,1.451,1.021,1.451,1.908c0,1.522-0.959,2.338-3.178,2.338h-3.07V8.023L191.811,8.023z M194.665,9.462h-1.128v2.124
			h1.128c0.937,0,1.283-0.396,1.283-1.068S195.602,9.462,194.665,9.462z M193.537,13.023v1.955h1.488
			c0.91,0,1.246-0.359,1.246-0.972s-0.336-0.983-1.246-0.983H193.537z"/>
	</g>
</g>
<path fill="#514DFF" d="M8.5,0C13.102,0,17,3.73,17,8.333v3.335C17,7.984,19.818,5,23.5,5S30,7.984,30,11.668V18H16.483H0V8.333
	C0,3.73,3.896,0,8.5,0z"/>
</svg>
