<?xml version="1.0" encoding="utf-8"?>
<!DOCTYPE svg PUBLIC "-//W3C//DTD SVG 1.1//EN" "http://www.w3.org/Graphics/SVG/1.1/DTD/svg11.dtd">
<svg version="1.1" xmlns="http://www.w3.org/2000/svg" xmlns:xlink="http://www.w3.org/1999/xlink" x="0px" y="0px"
	 width="40px" height="40px" viewBox="0 0 40 40" enable-background="new 0 0 40 40" xml:space="preserve">
<path fill="#B6E8FA" d="M20,0C8.955,0,0,8.953,0,20s8.955,20,20,20c11.047,0,20-8.953,20-20S31.047,0,20,0z M14.516,30.045H9.713
	V15.598h4.803V30.045z M12.115,13.625h-0.031c-1.612,0-2.652-1.109-2.652-2.494c0-1.418,1.071-2.496,2.715-2.496
	c1.645,0,2.653,1.078,2.685,2.496C14.831,12.516,13.791,13.625,12.115,13.625z M31.831,30.045h-4.8v-7.729
	c0-1.943-0.697-3.268-2.435-3.268c-1.325,0-2.115,0.895-2.462,1.754c-0.129,0.312-0.16,0.744-0.16,1.176v8.066h-4.803
	c0,0,0.065-13.092,0-14.447h4.803v2.05c0.638-0.983,1.776-2.386,4.328-2.386c3.16,0,5.528,2.062,5.528,6.5V30.045z"/>
</svg>
