<?xml version="1.0" encoding="utf-8"?>
<!DOCTYPE svg PUBLIC "-//W3C//DTD SVG 1.1//EN" "http://www.w3.org/Graphics/SVG/1.1/DTD/svg11.dtd">
<svg version="1.1" xmlns="http://www.w3.org/2000/svg" xmlns:xlink="http://www.w3.org/1999/xlink" x="0px" y="0px"
	 width="40px" height="40px" viewBox="0 0 40 40" enable-background="new 0 0 40 40" xml:space="preserve">
<path fill="#B6E8FA" d="M20,0C8.955,0,0,8.953,0,20s8.955,20,20,20c11.047,0,20-8.953,20-20S31.047,0,20,0z M31,26.678
	c0,0.541-0.193,1.003-0.578,1.388c-0.383,0.385-0.846,0.576-1.385,0.576H10.965c-0.539,0-1.004-0.191-1.387-0.576
	C9.193,27.681,9,27.219,9,26.678v-9.747c0.361,0.4,0.775,0.757,1.24,1.067c2.963,2.014,4.998,3.426,6.102,4.236
	c0.467,0.344,0.846,0.611,1.137,0.804s0.678,0.388,1.16,0.589c0.482,0.2,0.932,0.301,1.35,0.301H20h0.014
	c0.416,0,0.867-0.101,1.35-0.301c0.482-0.201,0.869-0.396,1.16-0.589s0.67-0.46,1.137-0.804c1.391-1.007,3.428-2.419,6.111-4.236
	c0.469-0.318,0.877-0.675,1.229-1.067V26.678z M30.398,15.176c-0.402,0.588-0.9,1.092-1.498,1.51
	c-3.076,2.136-4.992,3.465-5.744,3.989c-0.082,0.057-0.256,0.181-0.521,0.374c-0.268,0.193-0.488,0.348-0.664,0.466
	c-0.176,0.119-0.389,0.253-0.639,0.4c-0.248,0.146-0.484,0.258-0.705,0.331c-0.221,0.074-0.426,0.109-0.613,0.109H20h-0.012
	c-0.188,0-0.393-0.035-0.613-0.109c-0.221-0.073-0.457-0.185-0.707-0.331c-0.25-0.147-0.463-0.281-0.639-0.4
	c-0.176-0.118-0.396-0.272-0.662-0.466s-0.439-0.317-0.521-0.374c-0.744-0.524-1.816-1.271-3.217-2.24
	c-1.398-0.97-2.238-1.553-2.516-1.749c-0.508-0.344-0.986-0.816-1.438-1.418C9.227,14.666,9,14.106,9,13.591
	c0-0.638,0.17-1.17,0.51-1.596c0.342-0.425,0.824-0.638,1.455-0.638h18.072c0.531,0,0.992,0.191,1.379,0.577
	C30.807,12.318,31,12.781,31,13.321C31,13.968,30.799,14.586,30.398,15.176z"/>
</svg>
